# xmcd
#
# Track frame offsets: 
#        150
#        27987
#        37938
#        65620
#        95230
#        111733
#        134544
#        157236
#        181989
#        201592
#        229742
#        261367
#        317575
#
# Disc length: 4673 seconds
#
# Revision: 4
# Processed by: cddbd v1.5.2PL0 Copyright (c) Steve Scherf et al.
# Submitted via: ExactAudioCopyFreeDBPlugin 1.0
#
DISCID=ca123f0d
DTITLE=Various Artist - Live Tracks (Audio's Audiophile Vol.12) 24Kar
DTITLE=atGoldCD
DYEAR=2000
DGENRE=Blues
TTITLE0=Joe Jackson - Is She Really Going Out With Him? [live]
TTITLE1=Toto - I Won't Hold You Back [live]
TTITLE2=Santana - Europa (Earth's Cry Heaven's Smile) [live]
TTITLE3=Blood, Sweat and Tears - Hi-De-Ho »That Old Sweet Roll« [live]
TTITLE4=Sara K. - Ball'n Joint [live]
TTITLE5=Annie Lennox - Why [live]
TTITLE6=Patricia Kaas - D'Allemagne [live]
TTITLE7=Liza Minnelli - Theme From New York, New York [live]
TTITLE8=B.B. King - Sweet Little Angel [live]
TTITLE9=Paolo Conte - Boogie [live]
TTITLE10=Weather Report - Birdland [live]
TTITLE11=Kraan - Nam Nam [live]
TTITLE12=Arne Domnérus and Friends - High Life [live]
EXTD=
EXTT0=
EXTT1=
EXTT2=
EXTT3=
EXTT4=
EXTT5=
EXTT6=
EXTT7=
EXTT8=
EXTT9=
EXTT10=
EXTT11=
EXTT12=
PLAYORDER=
